<svg version="1" xmlns="http://www.w3.org/2000/svg" width="682.667" height="682.667" viewBox="0 0 512.000000 512.000000"><path d="M348 94.3l-8.5 4.3-.3 11.3-.2 11.2 4.3-8.4c2.4-4.7 6.7-11.7 9.5-15.6 2.9-3.9 4.9-7.1 4.5-7.1-.5 0-4.6 2-9.3 4.3zM264 105.6c0 1.8 1.6 4.4 5 8.1 6.8 7.4 8.8 14 6.6 21.6-.9 3-3.7 9.1-6.3 13.7-4.1 7.2-4.8 9.3-5.1 14.9l-.3 6.6 3.9-7c2.2-3.9 5.6-9.7 7.6-12.9 10.1-16.7 9.9-27.6-.7-39.2-2.7-3-6.3-6.2-7.8-7-2.8-1.4-2.9-1.4-2.9 1.2zM192 109.5c0 1.7 1.7 4.3 5 7.8 6.4 6.6 8.7 13.3 7 19.9-.7 2.4-3.5 8.3-6.3 13.2-4.3 7.5-5.1 9.7-5.4 15-.4 7-1 7.6 8.3-7.9 7.2-11.9 10.4-19.5 10.4-24.8 0-6.7-3-12.9-9.6-19.5-6.7-6.7-9.4-7.8-9.4-3.7z"/><path d="M264.3 132.5c0 2.7.2 3.8.4 2.2.2-1.5.2-3.7 0-5-.2-1.2-.4 0-.4 2.8zM192.3 135c0 2.5.2 3.5.4 2.2.2-1.2.2-3.2 0-4.5-.2-1.2-.4-.2-.4 2.3zM339 150.4c0 4.8.8 7.6 3.9 14.5 5.1 11.1 6.5 18.8 5.1 27.6-.6 3.7-1.6 8.1-2.4 9.8-1.2 3-1.3 2.6-1.9-6.9-.4-5.6-1.5-12.8-2.6-16l-1.9-5.9-.1 24.7c-.1 13.7.1 24.8.4 24.8.2 0 2.7-3.2 5.5-7.2 6.6-9.4 9.5-18.4 9.4-29.8 0-10.2-1.9-15.9-9.8-31l-5.6-10.5v5.9zM93 220.1c-9.6 2.6-16.4 5.7-25 11.5-9.8 6.6-15.2 12.6-14.8 16.6.5 5 2.4 5.5 14.5 3.4 21.2-3.6 34.8-3.2 49.9 1.5l6.9 2.2-4.1 1.3c-16.6 4.9-20.2 14.9-17.5 47.9 1.6 18.7 3.1 25.6 10.5 48 12.5 37.6 23.7 55.3 40 62.9 7.6 3.6 13.5 4.5 36.9 5.7 26.9 1.4 129.2.7 139.2-1 16.3-2.7 29.6-13 41.1-31.9 9.8-16 24.5-52.5 27.8-68.7 2.2-11.2 4.6-29.8 4.6-36.5 0-12.2-5.5-21.8-14.8-25.8-7.3-3.1-20.5-6.8-31.2-8.6-32.4-5.5-110.5-9.1-145.5-6.7-16.5 1.1-47.9 4.4-54 5.7-2.8.5-3.4.1-6.9-5-14-20.4-34.9-28.5-57.6-22.5z"/></svg>