<svg version="1" xmlns="http://www.w3.org/2000/svg" width="682.667" height="682.667" viewBox="0 0 512.000000 512.000000"><path d="M253.7 19.7c-.4.3-.7 1.6-.7 2.8 0 1.2-.7 3-1.5 4.1-.8 1-1.5 2.7-1.5 3.7s-.7 2-1.5 2.4c-1.4.5-1.4.8.2 2.5 3.7 4.1 2.6 23.9-2.2 38-2.8 8.3-4.6 10.6-8.8 11-4.3.4-6.5 4-7.7 12.8-.5 4.1-2 10.6-3.1 14.3-2 6.2-2.1 7.3-.9 12.3 1.2 4.8 1.1 5.6-.3 7.2-2.4 2.6-2.1 5.9.8 11.3 2.4 4.6 2.4 6.2.2 5.3-.7-.2-2.2 1.4-3.3 3.6-1.8 3.3-2 4.1-.8 5.1 3.6 3 2.3 17.2-2.2 24.1L218 184h2.4c1.3 0 2.6-.6 2.9-1.3.8-2.3 2.2.5 2.1 4.4-.2 4.3-1.1 6-2.2 4.2-.6-.9-.7 22.9-.1 32.2 0 1.1-.2 4.5-.6 7.5-.6 5.2-.5 5.7 2.6 9.3 2.1 2.6 3.8 3.7 5 3.4 1-.3 2 .2 2.4 1.1 1.2 3.1-.7 17.6-2.6 20.8-1.1 1.7-1.9 3.9-1.9 4.8 0 .9-.9 3.4-2 5.6-1.1 2.2-2 5.3-2 7 0 1.7-1.1 5-2.4 7.3-2.2 3.9-3.7 8.1-5.1 14.9-.3 1.5-2.3 4.8-4.5 7.3-5.2 6-7.5 10.5-10.1 20.2-1.2 4.3-3 9.5-4 11.5s-2.9 6.3-4 9.5c-2.4 6.5-3.7 8.5-5 7.7-.5-.3-.9 1.1-.9 3.1 0 2.2-.8 4.7-2 6.2-1.1 1.4-2 3.2-2 4 0 2.2-3.7 8.9-7.3 13-2.4 2.8-2.7 3.5-1.2 2.9 7.2-3 7.4-2.5 4.9 9.4-2 9.6-1.4 26 1.4 34 1 3 2.2 7.3 2.6 9.5.4 2.1 1.4 5.2 2.3 6.8 2.3 4.6 24.4 26.7 28.1 28.3 1.9.7 4.7 2.5 6.3 3.8 3.7 3.1 7 4.1 20.4 6.1 13 2 18.4 3 20.8 4 1.2.5 1.7.3 1.7-.8 0-1.9 9.6-5.7 14.4-5.7 3.5 0 14.8-6.3 27-15.2 3.8-2.7 7.2-4.5 7.5-4 .3.5 1.6 1.2 2.9 1.6 2.1.7 2.2.5 2.2-4.2 0-4.9 2.9-10.4 7.3-14.1.9-.7 1.7-1.8 1.7-2.3 0-.5.9-2.1 2-3.6s2.7-6 3.5-10.1c.9-4.1 2-8 2.5-8.7.6-.6 1.3-4.9 1.6-9.5.3-4.6 1-9.8 1.5-11.6.8-2.5.5-4.3-1.5-9.3-1.4-3.4-3.1-9-3.7-12.4-1.3-7.7-4.5-15.8-12.5-31.7-3.4-6.9-6.7-14.3-7.3-16.5-.6-2.3-2.7-5.7-4.6-7.7-1.9-2-3.5-4.5-3.5-5.6 0-3.1-2.1-6.9-4.6-8.6-3.4-2.2-10.4-17.5-10.4-22.7 0-2.9-.3-3.8-.9-2.9-1.5 2.3-3.9.5-6.7-5-7.6-15.1-7-25.2 1.6-25.2 2.6 0 3-.4 3-2.9 0-1.9.5-2.8 1.6-2.8 1.3 0 1.4-.3.5-1.4-1-1.2-.8-1.9.8-3.5 2.4-2.4 3-9.6.9-10.4-1-.3-.9-1.8.5-6.9 1.7-6.6 2.4-17.3.7-11.8-.6 2.2-.8 2.3-1.5.7-.5-1.2.1-3.6 1.6-6.8 2-4.3 2.1-5.4 1.1-8-.7-1.6-1.7-4.2-2.4-5.9-1.1-2.5-.9-3.5 1-6.9l2.3-4-2.1-4.2c-1.9-3.7-2-4.6-.9-9.2 1.3-5.7.7-26.5-1-31-.8-2.1-.8-2.7.3-2.7 1.6 0 2.6-3 2.6-8.5.1-3.6 1.5-8.7 5-17.1 1.2-2.8 1.1-3.4-.8-6.1l-2.1-3 4.8-.6c2.6-.3 6.4-1.4 8.5-2.3 3.4-1.7 3.8-1.7 6.5-.1 4 2.3 5.8 2.1 7.8-.9 2-3.1 2.1-12 .2-15.6-.7-1.3-1.2-2.9-1.1-3.6.5-2-8.7-1.4-13.8.9-2.5 1.2-7.5 2.4-11.1 2.6-9.3.8-12.1-.9-15-8.6-1.2-3.3-3-6.8-4-7.7-1.1-.9-1.9-2.3-1.9-3.1 0-.7-1.1-1.3-2.5-1.3-1.5 0-3-.9-3.9-2.3-2.6-4.2-2.8-7.6-.5-13.8 1.8-4.8 2.1-7.3 1.6-12.8-.6-7.3-3.5-14.4-6.2-15.5-2.2-.8-10-.8-10.8.1zm3.3 236.2c1.3 2.6 1.3 3.1-.4 3.1-.8 0-1.5 1.4-1.8 3.4-.3 2.7 0 3.6 1.4 3.9.9.3 2 1.8 2.3 3.3.4 1.6 1.9 6.3 3.4 10.4 1.6 4.1 3.4 9.9 4.1 12.8.7 3.1 2 5.8 3.1 6.5 1.1.7 1.9 1.9 1.9 2.8 0 .9 1.3 3.6 3 6 2 3 2.7 5.1 2.3 6.7-.4 1.8 0 2.4 2.6 3.3 3.4 1.2 7.1 6.4 7.1 10 0 1.3.7 3.3 1.5 4.3.8 1.1 1.5 3 1.5 4.4 0 1.3.4 2.1 1 1.7 1.9-1.2 5.6 2.2 6.8 6.1.6 2.2 2.7 6.4 4.7 9.4 1.9 3 4.2 7.5 5.1 10 .9 2.5 2.7 6.7 3.9 9.5 2.9 6.4 6.1 28.5 4.4 29.6-.9.5-.9 1.5-.1 3.7.8 2.3.7 3.5-.3 4.8-1 1.5-1 2 .2 3.3 4.8 4.7-7.3 29.4-17 34.6-2 1.1-3.7 2.8-3.7 3.7 0 2.6-6.9 7.7-12.6 9.4-2.8.8-6 2.4-6.9 3.4-2.3 2.5-3.7 2.5-6 0-2.1-2.3-3.5-2.6-3.5-.6 0 1.8-6.4 4-9.4 3.2-1.5-.4-2.8 0-3.7 1-2.5 3.1-17-.5-24.1-6-1.9-1.4-4-2.6-4.6-2.6-1.8 0-11.2-10.1-15.4-16.4-6-9.3-10.1-26.1-6.8-28.1.6-.4.3-1.6-.7-3.1-3.2-5 .5-29.6 5.6-36.5 1.1-1.5 2.5-4.9 3.1-7.6 1.3-5.4 3.4-9.3 5.3-9.3.8 0 1.7-2.6 2.3-6.9.8-5 3.1-11.1 8.2-22 4-8.2 8.1-17.8 9.3-21.3 1.1-3.5 3.8-10.1 5.9-14.8 2-4.7 4.1-10.1 4.5-12 .4-1.9 2.2-6.2 4-9.6 2.1-3.7 3.6-8.1 4-11.5.4-2.9.8-6 1-6.7.6-1.8 2.3-1.5 3.5.7z"/></svg>